<svg xmlns="http://www.w3.org/2000/svg" viewBox="0 0 100 100">
  <!-- Dark background -->
  <rect width="100" height="100" fill="#1a1a2e"/>

  <!-- Map pin shape -->
  <path d="M50 20 C40 20 32 28 32 38 C32 48 50 65 50 65 C50 65 68 48 68 38 C68 28 60 20 50 20 Z"
        fill="#ff4444" stroke="#fff" stroke-width="2"/>

  <!-- Police badge star in center of pin -->
  <path d="M50 30 L51.5 34.5 L56 35 L53 38 L54 42.5 L50 40 L46 42.5 L47 38 L44 35 L48.5 34.5 Z"
        fill="#fff"/>

  <!-- Map grid lines in background -->
  <g stroke="#444" stroke-width="1" opacity="0.4">
    <line x1="15" y1="75" x2="85" y2="75"/>
    <line x1="15" y1="85" x2="85" y2="85"/>
    <line x1="25" y1="70" x2="25" y2="90"/>
    <line x1="40" y1="70" x2="40" y2="90"/>
    <line x1="60" y1="70" x2="60" y2="90"/>
    <line x1="75" y1="70" x2="75" y2="90"/>
  </g>
</svg>
